<?xml version="1.0" encoding="utf-8"?>
<!-- Generator: Adobe Illustrator 27.0.1, SVG Export Plug-In . SVG Version: 6.00 Build 0)  -->
<svg version="1.1" id="Calque_1" xmlns="http://www.w3.org/2000/svg" xmlns:xlink="http://www.w3.org/1999/xlink" x="0px" y="0px"
	 viewBox="0 0 590.5 133.66" style="enable-background:new 0 0 590.5 133.66;" xml:space="preserve">
<style type="text/css">
	.st0{fill:none;}
	.st1{fill:#960000;}
	.st2{fill:#1D1E1C;}
	.st3{fill:#A51A17;}
</style>
<g>
	<path d="M345.34,60.66c6.9,0,9.77-3.01,9.77-10.33v-6.03c0-7.17-2.88-10.19-9.77-10.19h-9.49v26.54H345.34z M315.73,16.61h29.61
		c20.27,0,29.9,8.89,29.9,27.69v6.03c0,18.94-9.63,27.83-29.9,27.83h-9.49v38.88h-20.12V16.61z"/>
</g>
<path class="st0" d="M109.95,34.14h-9.49v26.54h9.49c6.9,0,9.77-3.01,9.77-10.33v-6.03C119.72,37.16,116.85,34.14,109.95,34.14z"/>
<polygon class="st1" points="422.68,16.61 436.88,0 422.68,16.61 "/>
<rect x="407.71" y="34.11" class="st0" width="0" height="0.04"/>
<polygon class="st0" points="482.62,117.05 468.43,133.66 482.62,117.05 "/>
<path d="M40.1,79.31v10.91c0,7.32-3.59,11.33-10.06,11.33c-6.33,0-9.92-4.02-9.92-11.33V43.45c0-7.32,3.59-11.34,9.92-11.34
	c6.47,0,10.06,4.02,10.06,11.34v8.03h18.98v-7.32c0-18.65-10.49-28.98-29.47-28.98C10.64,15.18,0,25.51,0,44.16V89.5
	c0,15.69,7.54,25.47,21.21,28.19l32.79-38.38H40.1z"/>
<polygon class="st0" points="482.62,117.05 500.22,96.46 482.62,45.6 "/>
<polygon class="st2" points="482.62,117.05 482.62,117.05 482.62,117.05 "/>
<polygon points="482.62,117.05 482.62,45.6 500.22,96.46 527.61,64.4 527.61,16.61 509.64,16.61 509.64,74.72 489.52,16.61 
	464.65,16.61 464.65,117.05 482.62,117.05 482.62,117.05 "/>
<polygon class="st1" points="482.62,117.05 482.62,117.05 482.62,117.05 468.43,133.66 476.28,133.66 590.5,0 582.65,0 "/>
<polygon class="st1" points="500.22,96.46 482.62,117.05 482.62,117.05 582.65,0 527.61,64.4 "/>
<rect x="482.62" y="117.05" class="st1" width="0" height="0"/>
<polygon class="st1" points="482.62,117.05 482.62,117.05 482.62,117.05 "/>
<polygon class="st2" points="398.65,44.74 407.69,34.15 407.69,34.15 "/>
<polygon points="387.57,57.7 387.57,117.05 442.34,117.05 442.34,99.55 407.69,99.55 407.69,74.87 435.29,74.87 435.29,57.36 
	407.69,57.36 407.69,34.15 398.65,44.74 "/>
<rect x="415.2" y="13.85" class="st2" width="0" height="23.02"/>
<polygon class="st2" points="442.34,34.12 442.34,16.61 422.68,16.61 407.72,34.12 "/>
<polygon class="st3" points="407.69,34.12 407.69,34.15 407.72,34.12 "/>
<polygon class="st1" points="407.69,34.15 407.69,34.12 407.72,34.12 422.68,16.61 436.88,0 429.03,0 314.8,133.66 322.65,133.66 
	398.65,44.74 "/>
<polygon class="st3" points="398.65,44.74 322.65,133.66 387.57,57.7 "/>
<path d="M255.39,73.58c13.66,6.6,17.11,8.75,17.11,17.36c0,6.74-4.17,10.62-10.49,10.62c-7.19,0-10.35-4.45-10.35-10.62v-4.45
	h-18.97v4.45c0,16.5,9.92,27.55,29.61,27.55c19.69,0,30.33-11.05,30.33-27.98c0-14.35-4.31-23.24-21.99-31.71
	c-13.51-6.46-17.39-8.75-17.39-16.5c0-6.17,3.59-10.19,9.77-10.19c7.05,0,9.92,4.59,9.92,10.9v2.73h18.98v-2.87
	c0-14.51-7.35-24.75-22.09-27.13l-34.37,40.21C238.37,62.83,244.39,68.27,255.39,73.58z"/>
<polygon points="195.5,75.59 219.8,16.61 199.96,16.61 186.3,52.34 172.79,16.61 151.08,16.61 175.38,75.59 175.38,117.05 
	175.38,117.05 195.5,93.51 "/>
<polygon class="st1" points="275.41,0 195.5,93.51 175.38,117.05 161.18,133.66 169.03,133.66 235.44,55.95 269.81,15.74 283.26,0 
	"/>
<path class="st0" d="M109.95,34.14h-9.49v26.54h9.49c6.9,0,9.77-3.01,9.77-10.33v-6.03C119.72,37.16,116.85,34.14,109.95,34.14z"/>
<path d="M128.92,74.02c7.35-4.35,10.93-12.14,10.93-23.66v-6.03c0-17.08-7.96-25.98-24.62-27.46L80.34,57.69v59.39l20.12,0V78.19
	h9.49c0.46,0,0.91-0.01,1.36-0.02l12.26,38.9h18.88L128.92,74.02z M119.72,50.36c0,7.32-2.88,10.33-9.77,10.33h-9.49V34.14h9.49
	c6.9,0,9.77,3.01,9.77,10.19V50.36z"/>
<polygon class="st1" points="121.79,0 54.01,79.31 21.21,117.69 7.56,133.66 15.41,133.66 80.34,57.69 115.22,16.87 129.64,0 "/>
</svg>
