<?xml version="1.0" encoding="utf-8"?>
<!-- Generator: Adobe Illustrator 27.0.1, SVG Export Plug-In . SVG Version: 6.00 Build 0)  -->
<svg version="1.1" id="Calque_1" xmlns="http://www.w3.org/2000/svg" xmlns:xlink="http://www.w3.org/1999/xlink" x="0px" y="0px"
	 viewBox="0 0 929.7 133.7" style="enable-background:new 0 0 929.7 133.7;" xml:space="preserve">
<style type="text/css">
	.st0{fill:none;}
	.st1{fill:#960000;}
	.st2{fill:#1D1E1C;}
	.st3{fill:#A51A17;}
	.st4{enable-background:new    ;}
</style>
<g>
	<path d="M345.3,60.7c6.9,0,9.8-3,9.8-10.3v-6c0-7.2-2.9-10.2-9.8-10.2h-9.5v26.5L345.3,60.7L345.3,60.7z M315.7,16.6h29.6
		c20.3,0,29.9,8.9,29.9,27.7v6c0,18.9-9.6,27.8-29.9,27.8h-9.5V117h-20.1L315.7,16.6L315.7,16.6z"/>
</g>
<path class="st0" d="M109.9,34.1h-9.5v26.5h9.5c6.9,0,9.8-3,9.8-10.3v-6C119.7,37.2,116.8,34.1,109.9,34.1z"/>
<path class="st1" d="M422.7,16.6L436.9,0L422.7,16.6z"/>
<rect x="407.7" y="34.1" class="st0" width="0" height="0"/>
<path class="st0" d="M482.6,117.1l-14.2,16.6L482.6,117.1z"/>
<path d="M40.1,79.3v10.9c0,7.3-3.6,11.3-10.1,11.3c-6.3,0-9.9-4-9.9-11.3V43.5c0-7.3,3.6-11.3,9.9-11.3c6.5,0,10.1,4,10.1,11.3v8h19
	v-7.3c0-18.6-10.5-29-29.5-29c-19,0-29.6,10.3-29.6,29v45.3c0,15.7,7.5,25.5,21.2,28.2L54,79.3H40.1z"/>
<polygon class="st0" points="482.6,117.1 500.2,96.5 482.6,45.6 "/>
<path class="st2" d="M482.6,117.1L482.6,117.1L482.6,117.1z"/>
<polygon points="482.6,117.1 482.6,45.6 500.2,96.5 527.6,64.4 527.6,16.6 509.6,16.6 509.6,74.7 489.5,16.6 464.6,16.6 
	464.6,117.1 482.6,117.1 "/>
<polygon class="st1" points="482.6,117.1 482.6,117.1 482.6,117.1 468.4,133.7 476.3,133.7 590.5,0 582.7,0 "/>
<polygon class="st1" points="500.2,96.5 482.6,117.1 482.6,117.1 582.7,0 527.6,64.4 "/>
<polygon class="st1" points="482.6,117.1 482.6,117.1 482.6,117.1 "/>
<path class="st1" d="M482.6,117.1L482.6,117.1L482.6,117.1z"/>
<polygon class="st2" points="398.6,44.7 407.7,34.2 407.7,34.2 "/>
<polygon points="387.6,57.7 387.6,117.1 442.3,117.1 442.3,99.6 407.7,99.6 407.7,74.9 435.3,74.9 435.3,57.4 407.7,57.4 
	407.7,34.2 398.6,44.7 "/>
<rect x="415.2" y="13.9" class="st2" width="0" height="23"/>
<polygon class="st2" points="442.3,34.1 442.3,16.6 422.7,16.6 407.7,34.1 "/>
<polygon class="st3" points="407.7,34.1 407.7,34.2 407.7,34.1 "/>
<polygon class="st1" points="407.7,34.2 407.7,34.1 407.7,34.1 422.7,16.6 436.9,0 429,0 314.8,133.7 322.6,133.7 398.6,44.7 "/>
<polygon class="st3" points="398.6,44.7 322.6,133.7 387.6,57.7 "/>
<path d="M255.4,73.6c13.7,6.6,17.1,8.8,17.1,17.4c0,6.7-4.2,10.6-10.5,10.6c-7.2,0-10.4-4.4-10.4-10.6v-4.4h-19v4.4
	c0,16.5,9.9,27.6,29.6,27.6s30.3-11.1,30.3-28c0-14.3-4.3-23.2-22-31.7c-13.5-6.5-17.4-8.8-17.4-16.5c0-6.2,3.6-10.2,9.8-10.2
	c7,0,9.9,4.6,9.9,10.9v2.7h19v-2.9c0-14.5-7.4-24.8-22.1-27.1L235.5,56C238.4,62.8,244.4,68.3,255.4,73.6z"/>
<polygon points="195.5,75.6 219.8,16.6 200,16.6 186.3,52.3 172.8,16.6 151.1,16.6 175.4,75.6 175.4,117.1 175.4,117.1 195.5,93.5 
	"/>
<polygon class="st1" points="275.4,0 195.5,93.5 175.4,117.1 161.2,133.7 169,133.7 235.4,56 269.8,15.7 283.3,0 "/>
<path class="st0" d="M109.9,34.1h-9.5v26.5h9.5c6.9,0,9.8-3,9.8-10.3v-6C119.7,37.2,116.8,34.1,109.9,34.1z"/>
<path d="M128.9,74c7.4-4.3,10.9-12.1,10.9-23.7v-6c0-17.1-8-26-24.6-27.5L80.3,57.7v59.4h20.1V78.2h9.5c0.5,0,0.9,0,1.4,0l12.3,38.9
	h18.9L128.9,74z M119.7,50.4c0,7.3-2.9,10.3-9.8,10.3h-9.5V34.1h9.5c6.9,0,9.8,3,9.8,10.2V50.4z"/>
<polygon class="st1" points="121.8,0 54,79.3 21.2,117.7 7.6,133.7 15.4,133.7 80.3,57.7 115.2,16.9 129.6,0 "/>
<g class="st4">
	<path class="st1" d="M627.2,16.9h30.2c20,0,29.6,8,29.6,25v1.9c0,10.3-4.1,16.7-12.9,19.9v0.4C684.3,67.4,689,75,689,87.7v1.7
		c0,18.7-9.6,27.6-29.7,27.6h-32V16.9z M654.9,56.8c8.3,0,12-3.3,12-10.6v-1.9c0-7-3-10-10.2-10h-9.6v22.5H654.9z M659.2,99.6
		c6.9,0,9.7-3,9.7-10.2v-2.7c0-9.3-3.1-12.4-12.9-12.4h-8.9v25.3H659.2z"/>
	<path class="st1" d="M711.3,16.9h20v82.7h32.9v17.4h-52.9V16.9z"/>
	<path class="st1" d="M783.1,89.6V44.4c0-18.2,10.7-28.9,30.3-28.9s30.3,10.7,30.3,28.9v45.2c0,18.2-10.7,28.9-30.3,28.9
		S783.1,107.8,783.1,89.6z M823.7,90.3V43.7c0-6.7-3.6-10.7-10.3-10.7c-6.7,0-10.3,4-10.3,10.7v46.6c0,6.7,3.6,10.7,10.3,10.7
		C820.1,101,823.7,97,823.7,90.3z"/>
	<path class="st1" d="M866.1,89.9V44.4c0-18.2,11-28.9,29.7-28.9s29.7,10.7,29.7,28.9v5.7h-18.9v-6.4c0-6.7-3.6-10.7-10.3-10.7
		c-6.7,0-10.3,4-10.3,10.7v46.6c0,6.7,3.6,10.7,10.3,10.7c6.7,0,10.3-4,10.3-10.7V78h-9.9V59.8h28.7v30c0,18-11,28.6-29.7,28.6
		S866.1,107.9,866.1,89.9z"/>
</g>
</svg>
